<?xml version="1.0" encoding="iso-8859-1"?>
<!-- Generator: Adobe Illustrator 19.0.0, SVG Export Plug-In . SVG Version: 6.00 Build 0)  -->
<svg version="1.1" id="Capa_1" xmlns="http://www.w3.org/2000/svg" xmlns:xlink="http://www.w3.org/1999/xlink" x="0px" y="0px"
	 viewBox="0 0 512 512" style="enable-background:new 0 0 512 512;" xml:space="preserve">
<g>
	<g>
		<path d="M447.056,145.922L316.643,277.046L449.616,419.78c1.419-4.37,2.384-8.942,2.384-13.78V166
			C452,158.749,450.114,151.994,447.056,145.922z"/>
	</g>
</g>
<g>
	<g>
		<path d="M407,121H45c-6.597,0-12.817,1.507-18.468,4.069l188.833,188.925c5.654,5.713,15.601,5.713,21.284,0l188.82-188.925
			C419.819,122.507,413.597,121,407,121z"/>
	</g>
</g>
<g>
	<g>
		<path d="M295.474,298.356l-37.541,36.79c-8.525,8.569-19.863,13.271-31.934,13.271c-12.071,0-23.408-4.702-31.919-13.271
			l-35.276-34.506L24.192,445.661C30.445,448.957,37.454,451,45,451h362c8.87,0,17.091-2.664,24.067-7.112L295.474,298.356z"/>
	</g>
</g>
<g>
	<g>
		<path d="M4.944,145.921C1.886,151.992,0,158.749,0,166v240c0,6.288,1.317,12.266,3.655,17.706L137.648,279.34L4.944,145.921z"/>
	</g>
</g>
<g>
	<g>
		<path d="M467,61H105c-19.53,0-36.024,12.578-42.237,30H407c41.353,0,75,33.647,75,75v222.237c17.422-6.213,30-22.707,30-42.237
			V106C512,81.186,491.814,61,467,61z"/>
	</g>
</g>
<g>
</g>
<g>
</g>
<g>
</g>
<g>
</g>
<g>
</g>
<g>
</g>
<g>
</g>
<g>
</g>
<g>
</g>
<g>
</g>
<g>
</g>
<g>
</g>
<g>
</g>
<g>
</g>
<g>
</g>
</svg>
