<svg height="512" viewBox="0 0 56 56" width="512" xmlns="http://www.w3.org/2000/svg"><g id="Page-1" fill="none" fill-rule="evenodd"><g id="006---Espresso-Machine" fill="rgb(0,0,0)" fill-rule="nonzero"><path id="Shape" d="m44 21h9v-9.0000302l-6.91.0000302c-1.5165382-.0058974-2.904219.85185-3.577 2.211l-2.237 4.472c-.6780854 1.3591612-1.8500639 2.407717-3.276 2.931v.386h4.78c.5642399-.6337052 1.3715062-.9973386 2.22-1z"/><path id="Shape" d="m19 36v6c.0033061 2.7600532 2.2399468 4.9966939 5 5h8c2.7600532-.0033061 4.9966939-2.2399468 5-5v-6zm5 9c-1.6568542 0-3-1.3431458-3-3 0-.5522847.4477153-1 1-1s1 .4477153 1 1 .4477153 1 1 1 1 .4477153 1 1-.4477153 1-1 1z"/><path id="Shape" d="m42.5 39.764c-.11716-.4380758-.5068044-.7481678-.96-.764h-2.54v3c-.0023471.3091592-.025063.6178279-.068.924 1.2351495-.0383656 2.4092093-.5461831 3.283-1.42.3758026-.4976512.4824009-1.148462.285-1.74z"/><rect id="Rectangle-path" height="5" rx="1" width="13" x="43" y="23"/><path id="Rectangle-path" d="m37 24h4v3h-4z"/><path id="Shape" d="m33 29c1.1045695 0 2-.8954305 2-2v-5h-14v5c0 1.1045695.8954305 2 2 2z"/><path id="Shape" d="m3 11.9999698v35.0000302h16.111c-1.3500248-1.3131925-2.1114407-3.116641-2.111-5v-6c0-1.1045695.8954305-2 2-2h18c1.1045695 0 2 .8954305 2 2v1h2.54c1.3627809.0102577 2.5503204.9308056 2.9 2.248.360039 1.1950629.1225641 2.490381-.638 3.48-1.029 1.33-3 2.128-5.47 2.248-.3572893.7548291-.8458867 1.4401521-1.443 2.024h16.111v-17h-9c-.8484938-.0026614-1.6557601-.3662948-2.22-1h-5.336c-.7089761 1.2333522-2.0214021 1.9955044-3.444 2v1c0 .5522847-.4477153 1-1 1s-1-.4477153-1-1v-1h-6v1c0 .5522847-.4477153 1-1 1s-1-.4477153-1-1v-1c-2.209139 0-4-1.790861-4-4v-5.386c-1.4259361-.523283-2.5979146-1.5718388-3.276-2.931l-2.237-4.472c-.672781-1.35915-2.0604618-2.2168974-3.577-2.211h-1.91v7c-.00272861 1.0932058.43187848 2.142096 1.207 2.913 1.0906633 1.0870538 1.7273267 2.548055 1.781 4.087h.186c1.5539739-.0068103 2.8532209 1.1797802 2.987 2.728l.637 7c.0764331.83954-.203892 1.672498-.7723633 2.2950007-.5684714.6225028-1.3726246.9770994-2.2156367.9769993h-3.62c-.84316953.0006367-1.6476838-.3535802-2.21656364-.9759233-.56887985-.6223432-.84960294-1.4553542-.77343636-2.2950767l.637-7c.13335019-1.549385 1.43390674-2.7368118 2.989-2.729h.151c-.05131415-1.0065739-.47302228-1.9586227-1.184-2.673-1.15153361-1.1450103-1.7971656-2.7030971-1.793-4.327v-7z"/><path id="Shape" d="m32 49h-32v2h5c.55228475 0 1 .4477153 1 1s-.44771525 1-1 1h-5c0 1.6568542 1.34314575 3 3 3h50c1.6568542 0 3-1.3431458 3-3h-5c-.5522847 0-1-.4477153-1-1s.4477153-1 1-1h5v-2z"/><path id="Shape" d="m7.831 28.91-.637 7c-.02534406.280432.0687143.5585539.25906756.7660389.19035326.2074851.45935989.325104.74093244.3239611h3.62c.2817632.0011693.5509448-.1165848.7413321-.3242974.1903873-.2077125.284311-.4861063.2586679-.7667026l-.637-7c-.046703-.5168638-.4810348-.9121057-1-.91h-2.351c-.51739884.0005338-.94895175.3956541-.995.911z"/><circle id="Oval" cx="6" cy="5" r="1"/><circle id="Oval" cx="50" cy="5" r="1"/><path id="Shape" d="m28 5c-2.7614237 0-5 2.23857625-5 5 0 2.7614237 2.2385763 5 5 5s5-2.2385763 5-5c-.0033061-2.76005315-2.2399468-4.99669388-5-5zm1 5c0 .5522847-.4477153 1-1 1s-1-.4477153-1-1v-2c0-.55228475.4477153-1 1-1s1 .44771525 1 1z"/><circle id="Oval" cx="42" cy="5" r="1"/><circle id="Oval" cx="14" cy="5" r="1"/><path id="Shape" d="m54 0h-52c-1.1045695 0-2 .8954305-2 2v6c0 1.1045695.8954305 2 2 2h7.91c2.2747637-.00775338 4.3559757 1.2787505 5.366 3.317l2.237 4.472c.672781 1.35915 2.0604618 2.2168974 3.577 2.211h13.82c1.5165382.0058974 2.904219-.85185 3.577-2.211l2.237-4.472c1.0100243-2.0382495 3.0912363-3.32475338 5.366-3.317h7.91c1.1045695 0 2-.8954305 2-2v-6c0-1.1045695-.8954305-2-2-2zm-48 8c-1.65685425 0-3-1.34314575-3-3s1.34314575-3 3-3 3 1.34314575 3 3c0 .79564947-.31607052 1.55871121-.87867966 2.12132034-.56260913.56260914-1.32567087.87867966-2.12132034.87867966zm8 0c-1.6568542 0-3-1.34314575-3-3s1.3431458-3 3-3 3 1.34314575 3 3c0 .79564947-.3160705 1.55871121-.8786797 2.12132034-.5626091.56260914-1.3256708.87867966-2.1213203.87867966zm14 9c-3.8659932 0-7-3.1340068-7-7 0-3.86599325 3.1340068-7 7-7s7 3.13400675 7 7c-.0044086 3.8641657-3.1358343 6.9955914-7 7zm14-9c-1.6568542 0-3-1.34314575-3-3s1.3431458-3 3-3 3 1.34314575 3 3c0 .79564947-.3160705 1.55871121-.8786797 2.12132034-.5626091.56260914-1.3256708.87867966-2.1213203.87867966zm8 0c-1.6568542 0-3-1.34314575-3-3s1.3431458-3 3-3 3 1.34314575 3 3c0 .79564947-.3160705 1.55871121-.8786797 2.12132034-.5626091.56260914-1.3256708.87867966-2.1213203.87867966z"/></g></g></svg>